<svg width="1917" height="903" viewBox="0 0 1917 903" fill="none" xmlns="http://www.w3.org/2000/svg">
<g style="mix-blend-mode:color-burn">
<rect width="53" height="903" fill="url(#paint0_linear_15_11)"/>
<rect x="53" width="54" height="903" fill="url(#paint1_linear_15_11)"/>
<rect x="107" width="53" height="903" fill="url(#paint2_linear_15_11)"/>
<rect x="160" width="53" height="903" fill="url(#paint3_linear_15_11)"/>
<rect x="213" width="54" height="903" fill="url(#paint4_linear_15_11)"/>
<rect x="267" width="53" height="903" fill="url(#paint5_linear_15_11)"/>
<rect x="320" width="53" height="903" fill="url(#paint6_linear_15_11)"/>
<rect x="373" width="54" height="903" fill="url(#paint7_linear_15_11)"/>
<rect x="427" width="53" height="903" fill="url(#paint8_linear_15_11)"/>
<rect x="480" width="53" height="903" fill="url(#paint9_linear_15_11)"/>
<rect x="533" width="54" height="903" fill="url(#paint10_linear_15_11)"/>
<rect x="587" width="52" height="903" fill="url(#paint11_linear_15_11)"/>
<rect x="639" width="53" height="903" fill="url(#paint12_linear_15_11)"/>
<rect x="692" width="54" height="903" fill="url(#paint13_linear_15_11)"/>
<rect x="746" width="53" height="903" fill="url(#paint14_linear_15_11)"/>
<rect x="799" width="53" height="903" fill="url(#paint15_linear_15_11)"/>
<rect x="852" width="54" height="903" fill="url(#paint16_linear_15_11)"/>
<rect x="906" width="53" height="903" fill="url(#paint17_linear_15_11)"/>
<rect x="961" width="53" height="903" fill="url(#paint18_linear_15_11)"/>
<rect x="1014" width="54" height="903" fill="url(#paint19_linear_15_11)"/>
<rect x="1068" width="53" height="903" fill="url(#paint20_linear_15_11)"/>
<rect x="1121" width="53" height="903" fill="url(#paint21_linear_15_11)"/>
<rect x="1174" width="54" height="903" fill="url(#paint22_linear_15_11)"/>
<rect x="1228" width="53" height="903" fill="url(#paint23_linear_15_11)"/>
<rect x="1281" width="53" height="903" fill="url(#paint24_linear_15_11)"/>
<rect x="1334" width="54" height="903" fill="url(#paint25_linear_15_11)"/>
<rect x="1388" width="53" height="903" fill="url(#paint26_linear_15_11)"/>
<rect x="1441" width="52" height="903" fill="url(#paint27_linear_15_11)"/>
<rect x="1493" width="54" height="903" fill="url(#paint28_linear_15_11)"/>
<rect x="1547" width="53" height="903" fill="url(#paint29_linear_15_11)"/>
<rect x="1600" width="53" height="903" fill="url(#paint30_linear_15_11)"/>
<rect x="1653" width="54" height="903" fill="url(#paint31_linear_15_11)"/>
<rect x="1707" width="53" height="903" fill="url(#paint32_linear_15_11)"/>
<rect x="1760" width="53" height="903" fill="url(#paint33_linear_15_11)"/>
<rect x="1813" width="54" height="903" fill="url(#paint34_linear_15_11)"/>
<rect x="1867" width="53" height="903" fill="url(#paint35_linear_15_11)"/>
</g>
<defs>
<linearGradient id="paint0_linear_15_11" x1="0" y1="451.5" x2="53" y2="451.5" gradientUnits="userSpaceOnUse">
<stop stop-color="#D9D9D9"/>
<stop offset="1" stop-color="#737373"/>
</linearGradient>
<linearGradient id="paint1_linear_15_11" x1="53" y1="451.5" x2="107" y2="451.5" gradientUnits="userSpaceOnUse">
<stop stop-color="#D9D9D9"/>
<stop offset="1" stop-color="#737373"/>
</linearGradient>
<linearGradient id="paint2_linear_15_11" x1="107" y1="451.5" x2="160" y2="451.5" gradientUnits="userSpaceOnUse">
<stop stop-color="#D9D9D9"/>
<stop offset="1" stop-color="#737373"/>
</linearGradient>
<linearGradient id="paint3_linear_15_11" x1="160" y1="451.5" x2="213" y2="451.5" gradientUnits="userSpaceOnUse">
<stop stop-color="#D9D9D9"/>
<stop offset="1" stop-color="#737373"/>
</linearGradient>
<linearGradient id="paint4_linear_15_11" x1="213" y1="451.5" x2="267" y2="451.5" gradientUnits="userSpaceOnUse">
<stop stop-color="#D9D9D9"/>
<stop offset="1" stop-color="#737373"/>
</linearGradient>
<linearGradient id="paint5_linear_15_11" x1="267" y1="451.5" x2="320" y2="451.5" gradientUnits="userSpaceOnUse">
<stop stop-color="#D9D9D9"/>
<stop offset="1" stop-color="#737373"/>
</linearGradient>
<linearGradient id="paint6_linear_15_11" x1="320" y1="451.5" x2="373" y2="451.5" gradientUnits="userSpaceOnUse">
<stop stop-color="#D9D9D9"/>
<stop offset="1" stop-color="#737373"/>
</linearGradient>
<linearGradient id="paint7_linear_15_11" x1="373" y1="451.5" x2="427" y2="451.5" gradientUnits="userSpaceOnUse">
<stop stop-color="#D9D9D9"/>
<stop offset="1" stop-color="#737373"/>
</linearGradient>
<linearGradient id="paint8_linear_15_11" x1="427" y1="451.5" x2="480" y2="451.5" gradientUnits="userSpaceOnUse">
<stop stop-color="#D9D9D9"/>
<stop offset="1" stop-color="#737373"/>
</linearGradient>
<linearGradient id="paint9_linear_15_11" x1="480" y1="451.5" x2="533" y2="451.5" gradientUnits="userSpaceOnUse">
<stop stop-color="#D9D9D9"/>
<stop offset="1" stop-color="#737373"/>
</linearGradient>
<linearGradient id="paint10_linear_15_11" x1="533" y1="451.5" x2="587" y2="451.5" gradientUnits="userSpaceOnUse">
<stop stop-color="#D9D9D9"/>
<stop offset="1" stop-color="#737373"/>
</linearGradient>
<linearGradient id="paint11_linear_15_11" x1="587" y1="451.5" x2="639" y2="451.5" gradientUnits="userSpaceOnUse">
<stop stop-color="#D9D9D9"/>
<stop offset="1" stop-color="#737373"/>
</linearGradient>
<linearGradient id="paint12_linear_15_11" x1="639" y1="451.5" x2="692" y2="451.5" gradientUnits="userSpaceOnUse">
<stop stop-color="#D9D9D9"/>
<stop offset="1" stop-color="#737373"/>
</linearGradient>
<linearGradient id="paint13_linear_15_11" x1="692" y1="451.5" x2="746" y2="451.5" gradientUnits="userSpaceOnUse">
<stop stop-color="#D9D9D9"/>
<stop offset="1" stop-color="#737373"/>
</linearGradient>
<linearGradient id="paint14_linear_15_11" x1="746" y1="451.5" x2="799" y2="451.5" gradientUnits="userSpaceOnUse">
<stop stop-color="#D9D9D9"/>
<stop offset="1" stop-color="#737373"/>
</linearGradient>
<linearGradient id="paint15_linear_15_11" x1="799" y1="451.5" x2="852" y2="451.5" gradientUnits="userSpaceOnUse">
<stop stop-color="#D9D9D9"/>
<stop offset="1" stop-color="#737373"/>
</linearGradient>
<linearGradient id="paint16_linear_15_11" x1="852" y1="451.5" x2="906" y2="451.5" gradientUnits="userSpaceOnUse">
<stop stop-color="#D9D9D9"/>
<stop offset="1" stop-color="#737373"/>
</linearGradient>
<linearGradient id="paint17_linear_15_11" x1="906" y1="451.5" x2="959" y2="451.5" gradientUnits="userSpaceOnUse">
<stop stop-color="#D9D9D9"/>
<stop offset="1" stop-color="#737373"/>
</linearGradient>
<linearGradient id="paint18_linear_15_11" x1="961" y1="451.5" x2="1014" y2="451.5" gradientUnits="userSpaceOnUse">
<stop stop-color="#D9D9D9"/>
<stop offset="1" stop-color="#737373"/>
</linearGradient>
<linearGradient id="paint19_linear_15_11" x1="1014" y1="451.5" x2="1068" y2="451.5" gradientUnits="userSpaceOnUse">
<stop stop-color="#D9D9D9"/>
<stop offset="1" stop-color="#737373"/>
</linearGradient>
<linearGradient id="paint20_linear_15_11" x1="1068" y1="451.5" x2="1121" y2="451.5" gradientUnits="userSpaceOnUse">
<stop stop-color="#D9D9D9"/>
<stop offset="1" stop-color="#737373"/>
</linearGradient>
<linearGradient id="paint21_linear_15_11" x1="1121" y1="451.5" x2="1174" y2="451.5" gradientUnits="userSpaceOnUse">
<stop stop-color="#D9D9D9"/>
<stop offset="1" stop-color="#737373"/>
</linearGradient>
<linearGradient id="paint22_linear_15_11" x1="1174" y1="451.5" x2="1228" y2="451.5" gradientUnits="userSpaceOnUse">
<stop stop-color="#D9D9D9"/>
<stop offset="1" stop-color="#737373"/>
</linearGradient>
<linearGradient id="paint23_linear_15_11" x1="1228" y1="451.5" x2="1281" y2="451.5" gradientUnits="userSpaceOnUse">
<stop stop-color="#D9D9D9"/>
<stop offset="1" stop-color="#737373"/>
</linearGradient>
<linearGradient id="paint24_linear_15_11" x1="1281" y1="451.5" x2="1334" y2="451.5" gradientUnits="userSpaceOnUse">
<stop stop-color="#D9D9D9"/>
<stop offset="1" stop-color="#737373"/>
</linearGradient>
<linearGradient id="paint25_linear_15_11" x1="1334" y1="451.5" x2="1388" y2="451.5" gradientUnits="userSpaceOnUse">
<stop stop-color="#D9D9D9"/>
<stop offset="1" stop-color="#737373"/>
</linearGradient>
<linearGradient id="paint26_linear_15_11" x1="1388" y1="451.5" x2="1441" y2="451.5" gradientUnits="userSpaceOnUse">
<stop stop-color="#D9D9D9"/>
<stop offset="1" stop-color="#737373"/>
</linearGradient>
<linearGradient id="paint27_linear_15_11" x1="1441" y1="451.5" x2="1493" y2="451.5" gradientUnits="userSpaceOnUse">
<stop stop-color="#D9D9D9"/>
<stop offset="1" stop-color="#737373"/>
</linearGradient>
<linearGradient id="paint28_linear_15_11" x1="1493" y1="451.5" x2="1547" y2="451.5" gradientUnits="userSpaceOnUse">
<stop stop-color="#D9D9D9"/>
<stop offset="1" stop-color="#737373"/>
</linearGradient>
<linearGradient id="paint29_linear_15_11" x1="1547" y1="451.5" x2="1600" y2="451.5" gradientUnits="userSpaceOnUse">
<stop stop-color="#D9D9D9"/>
<stop offset="1" stop-color="#737373"/>
</linearGradient>
<linearGradient id="paint30_linear_15_11" x1="1600" y1="451.5" x2="1653" y2="451.5" gradientUnits="userSpaceOnUse">
<stop stop-color="#D9D9D9"/>
<stop offset="1" stop-color="#737373"/>
</linearGradient>
<linearGradient id="paint31_linear_15_11" x1="1653" y1="451.5" x2="1707" y2="451.5" gradientUnits="userSpaceOnUse">
<stop stop-color="#D9D9D9"/>
<stop offset="1" stop-color="#737373"/>
</linearGradient>
<linearGradient id="paint32_linear_15_11" x1="1707" y1="451.5" x2="1760" y2="451.5" gradientUnits="userSpaceOnUse">
<stop stop-color="#D9D9D9"/>
<stop offset="1" stop-color="#737373"/>
</linearGradient>
<linearGradient id="paint33_linear_15_11" x1="1760" y1="451.5" x2="1813" y2="451.5" gradientUnits="userSpaceOnUse">
<stop stop-color="#D9D9D9"/>
<stop offset="1" stop-color="#737373"/>
</linearGradient>
<linearGradient id="paint34_linear_15_11" x1="1813" y1="451.5" x2="1867" y2="451.5" gradientUnits="userSpaceOnUse">
<stop stop-color="#D9D9D9"/>
<stop offset="1" stop-color="#737373"/>
</linearGradient>
<linearGradient id="paint35_linear_15_11" x1="1867" y1="451.5" x2="1920" y2="451.5" gradientUnits="userSpaceOnUse">
<stop stop-color="#D9D9D9"/>
<stop offset="1" stop-color="#737373"/>
</linearGradient>
</defs>
</svg>
